# xmcd
#
# Track frame offsets:
#	150
#	10506
#	24626
#	45344
#	58606
#	72904
#	90307
#	102143
#	117283
#	129454
#	143699
#	157333
#
# Disc length: 2295 seconds
#
# Revision: 1
# Processed by: cddbd v1.5.2PL0 Copyright (c) Steve Scherf et al.
# Submitted via: audiograbber 1.83.01
#
DISCID=9308f50c
DTITLE=The Everly Brothers - Stories We Could Tell
DYEAR=1972
DGENRE=Oldies
TTITLE0=All We Really Want To Do
TTITLE1=Breakdown
TTITLE2=Green River
TTITLE3=Mandolin Wind
TTITLE4=Up In Mabel's Room
TTITLE5=Del Rio Dan
TTITLE6=Ridin' High
TTITLE7=Christmas Eve Can Kill You
TTITLE8=Three-Armed, Poker-Playin' River Rat
TTITLE9=I'm Tired Of Singing My Song In Las Vegas
TTITLE10=The Brand New Tennessee Waltz
TTITLE11=Stories We Could Tell
EXTD=
EXTT0=
EXTT1=
EXTT2=
EXTT3=
EXTT4=
EXTT5=
EXTT6=
EXTT7=
EXTT8=
EXTT9=
EXTT10=
EXTT11=
PLAYORDER=
